# xmcd
#
# Track frame offsets:
#	150
#	15192
#	32564
#	51497
#	69736
#	86359
#	103214
#	122075
#	140661
#	153732
#	174210
#	193791
#	211178
#	227467
#	242688
#	261895
#	277938
#	298278
#	320672
#	340110
#
# Disc length: 4697 seconds
#
# Revision: 1
# Processed by: cddbd v1.5.1PL0 Copyright (c) Steve Scherf et al.
# Submitted via: audiograbber 1.83.01
#
DISCID=23125714
DTITLE=Various Artist - 20 Самых, самых.
DYEAR=1900
DGENRE=
TTITLE0=Hi-Fi. - Так легко.
TTITLE1=Тату. - Робот.
TTITLE2=Руки Вверх. - Он не я.
TTITLE3=Моральный кодекс. - Кошки.
TTITLE4=Жасмин. - Они не я.
TTITLE5=Total. - Камасутра.
TTITLE6=Иванушки International. - Реви.
TTITLE7=Филипп Киркоров. - Валентинов день.
TTITLE8=Алсу. - Before You Love Me.
TTITLE9=Гости из будущего. - Так отважно.
TTITLE10=Би-2. - Серебро.
TTITLE11=Серьга. - Привык, забыл и потерял.
TTITLE12=Сплин. - Остаемся зимовать.
TTITLE13=Кристина Орбакайте. - Аист.
TTITLE14=Таня Буланова. - Тебя люблю.
TTITLE15=Теона. - Спутник.
TTITLE16=Турбомода. - Турболюбовь.
TTITLE17=Шеff and Dr. B and Белый шоколад. - Доктор.
TTITLE18=Демо. - Немая вечность.
TTITLE19=Олег Скрипка. - Я в весеннем лесу.
EXTD=
EXTT0=
EXTT1=
EXTT2=
EXTT3=
EXTT4=
EXTT5=
EXTT6=
EXTT7=
EXTT8=
EXTT9=
EXTT10=
EXTT11=
EXTT12=
EXTT13=
EXTT14=
EXTT15=
EXTT16=
EXTT17=
EXTT18=
EXTT19=
PLAYORDER=
